<svg xmlns="http://www.w3.org/2000/svg" xmlns:cc="http://web.resource.org/cc/" xmlns:svg="http://www.w3.org/2000/svg" xmlns:xlink="http://www.w3.org/1999/xlink" id="svg1384" width="48" height="48"><defs id="defs1386"><linearGradient id="linearGradient2688"><stop style="stop-color:#000;stop-opacity:.85792351" id="stop2690" offset="0"/><stop style="stop-color:#000;stop-opacity:0" id="stop2692" offset="1"/></linearGradient><linearGradient id="linearGradient2994"><stop style="stop-color:#000;stop-opacity:1" id="stop2996" offset="0"/><stop style="stop-color:#c9c9c9;stop-opacity:1" id="stop2998" offset="1"/></linearGradient><linearGradient id="linearGradient2326" x1="25.719" x2="25.515" y1="31.047" y2="30.703" gradientTransform="matrix(0.866025,-0.500000,0.500000,0.866025,-7.143381,18.57376)" gradientUnits="userSpaceOnUse" xlink:href="#linearGradient2994"/><linearGradient id="linearGradient2984"><stop style="stop-color:#e7e2b8;stop-opacity:1" id="stop2986" offset="0"/><stop style="stop-color:#e7e2b8;stop-opacity:0" id="stop2988" offset="1"/></linearGradient><radialGradient id="radialGradient2324" cx="29.053" cy="27.641" r="3.241" fx="29.053" fy="27.641" gradientTransform="matrix(2.531882,-1.461783,1.014859,1.757786,-69.41136,22.18199)" gradientUnits="userSpaceOnUse" xlink:href="#linearGradient2984"/><linearGradient id="linearGradient2974"><stop style="stop-color:#c1c1c1;stop-opacity:1" id="stop2976" offset="0"/><stop style="stop-color:#acacac;stop-opacity:1" id="stop2978" offset="1"/></linearGradient><linearGradient id="linearGradient2322" x1="46" x2="47.688" y1="19.813" y2="22.625" gradientTransform="matrix(0.866025,-0.500000,0.500000,0.866025,-7.070561,18.38738)" gradientUnits="userSpaceOnUse" xlink:href="#linearGradient2974"/><linearGradient id="linearGradient2966"><stop style="stop-color:#ffd1d1;stop-opacity:1" id="stop2968" offset="0"/><stop id="stop3006" offset=".5" style="stop-color:#ff1d1d;stop-opacity:1"/><stop style="stop-color:#6f0000;stop-opacity:1" id="stop2970" offset="1"/></linearGradient><linearGradient id="linearGradient2320" x1="48.906" x2="50.988" y1="17.376" y2="22.251" gradientTransform="matrix(0.884919,-0.534025,0.510908,0.924959,-8.120056,18.99720)" gradientUnits="userSpaceOnUse" xlink:href="#linearGradient2966"/><radialGradient id="radialGradient2694" cx="28.042" cy="41.221" r="21.668" fx="28.042" fy="41.221" gradientTransform="matrix(1.038917,6.790669e-3,-9.287574e-4,8.154968e-2,-1.053011,38.49254)" gradientUnits="userSpaceOnUse" xlink:href="#linearGradient2688"/></defs><metadata id="metadata1389"/><g id="layer1"><g style="display:inline" id="g2311" transform="matrix(1.415380,0.000000,0.000000,1.415380,-28.22384,-8.460935)"><path id="path2960" d="M 29.107071,35.027977 L 31.165964,27.344085 L 43.692661,8.8534616 C 45.882244,6.1459306 49.872668,9.1825476 48.195345,12.027339 L 35.535274,30.161952 L 29.107071,35.027977 z" style="opacity:1;color:#000;fill:#cb9022;fill-opacity:1;fill-rule:evenodd;stroke:#5c410c;stroke-width:.70652413;stroke-linecap:butt;stroke-linejoin:miter;marker:none;marker-start:none;marker-mid:none;marker-end:none;stroke-miterlimit:4;stroke-dasharray:none;stroke-dashoffset:0;stroke-opacity:1;visibility:visible;display:inline;overflow:visible"/><path style="opacity:1;color:#000;fill:url(#linearGradient2320);fill-opacity:1;fill-rule:evenodd;stroke:none;stroke-width:1;stroke-linecap:butt;stroke-linejoin:miter;marker:none;marker-start:none;marker-mid:none;marker-end:none;stroke-miterlimit:4;stroke-dasharray:none;stroke-dashoffset:0;stroke-opacity:1;visibility:visible;display:inline;overflow:visible" id="path2964" d="M 41.003012,13.444139 C 41.003012,13.444139 42.404988,13.015523 43.541391,13.871332 C 44.712123,14.752996 44.715552,16.441804 44.715552,16.441804 L 48.038970,11.660742 C 48.038970,11.660742 49.056542,10.114249 47.223576,8.6736262 C 45.422151,7.2582367 44.033829,8.9951778 44.033829,8.9951778 L 41.003012,13.444139 z"/><path id="path2962" d="M 41.003012,13.430323 C 41.003012,13.430323 42.326339,13.070326 43.438479,13.871607 C 44.584215,14.697095 44.722446,16.424317 44.722446,16.424317 L 46.143745,14.400586 C 46.143745,14.400586 46.055452,12.750274 44.844348,11.869144 C 43.599957,10.963796 42.064740,11.841860 42.064740,11.841860 L 41.003012,13.430323 z" style="opacity:1;color:#000;fill:url(#linearGradient2322);fill-opacity:1;fill-rule:evenodd;stroke:none;stroke-width:1;stroke-linecap:butt;stroke-linejoin:miter;marker:none;marker-start:none;marker-mid:none;marker-end:none;stroke-miterlimit:4;stroke-dasharray:none;stroke-dashoffset:0;stroke-opacity:1;visibility:visible;display:inline;overflow:visible"/><path id="path2982" d="M 29.689419,34.119691 L 31.479272,27.544883 C 33.184560,27.498529 34.854739,28.347325 35.284166,29.903614 L 29.689419,34.119691 z" style="opacity:1;color:#000;fill:url(#radialGradient2324);fill-opacity:1;fill-rule:evenodd;stroke:none;stroke-width:1;stroke-linecap:butt;stroke-linejoin:miter;marker:none;marker-start:none;marker-mid:none;marker-end:none;stroke-miterlimit:4;stroke-dasharray:none;stroke-dashoffset:0;stroke-opacity:1;visibility:visible;display:inline;overflow:visible"/><path id="path2992" d="M 30.304737,31.903206 L 29.700180,34.137479 L 31.769419,32.578995 C 31.599487,31.847165 30.874188,31.827024 30.304737,31.903206 z" style="opacity:1;color:#000;fill:url(#linearGradient2326);fill-opacity:1;fill-rule:evenodd;stroke:none;stroke-width:1;stroke-linecap:butt;stroke-linejoin:miter;marker:none;marker-start:none;marker-mid:none;marker-end:none;stroke-miterlimit:4;stroke-dasharray:none;stroke-dashoffset:0;stroke-opacity:1;visibility:visible;display:inline;overflow:visible"/><path id="path3002" d="M 31.476264,27.530437 C 32.152474,27.525726 32.834992,27.691339 33.372421,27.875876 L 43.266010,13.762045 C 42.453099,13.274446 41.635694,13.298550 41.011272,13.442239 L 31.476264,27.530437 z" style="opacity:1;color:#000;fill:#fff;fill-opacity:.3636364;fill-rule:evenodd;stroke:none;stroke-width:1;stroke-linecap:butt;stroke-linejoin:miter;marker:none;marker-start:none;marker-mid:none;marker-end:none;stroke-miterlimit:4;stroke-dasharray:none;stroke-dashoffset:0;stroke-opacity:1;visibility:visible;display:inline;overflow:visible"/><path id="path3004" d="M 35.296491,29.882042 L 34.957706,29.132465 L 44.488793,15.380354 C 44.488793,15.380354 44.731746,16.238106 44.708052,16.408505 L 35.296491,29.882042 z" style="opacity:1;color:#000;fill:#000;fill-opacity:.3636364;fill-rule:evenodd;stroke:none;stroke-width:1;stroke-linecap:butt;stroke-linejoin:miter;marker:none;marker-start:none;marker-mid:none;marker-end:none;stroke-miterlimit:4;stroke-dasharray:none;stroke-dashoffset:0;stroke-opacity:1;visibility:visible;display:inline;overflow:visible"/></g><path style="opacity:.3;fill:url(#radialGradient2694);fill-opacity:1;stroke:none;stroke-width:1;stroke-linecap:round;stroke-linejoin:miter;stroke-miterlimit:4;stroke-dasharray:none;stroke-dashoffset:0;stroke-opacity:1" id="path1959" d="M 51.214735 42.191624 A 21.667772 3.2829957 0 1 1 7.8791904,42.191624 A 21.667772 3.2829957 0 1 1 51.214735 42.191624 z" transform="matrix(0.807651,0.000000,0.000000,1.066100,5.636362,-2.480482)"/></g></svg>